<svg width="208" height="41" viewBox="0 0 208 41" fill="none" xmlns="http://www.w3.org/2000/svg">
<path d="M9.33477 29.104L0.658766 20.824L9.33477 12.58H13.4748L4.76277 20.824L13.4748 29.104H9.33477ZM188.85 0.0879989L178.986 40.12H175.746L185.574 0.0879989H188.85ZM194.343 12.58H198.483L207.195 20.824L198.483 29.104H194.343L203.055 20.824L194.343 12.58Z" fill="#7C5CBF"/>
<path d="M28.1875 8.908C30.9235 8.908 33.2875 9.424 35.2795 10.456C37.2955 11.464 38.8315 12.916 39.8875 14.812C40.9675 16.708 41.5075 18.94 41.5075 21.508C41.5075 24.076 40.9675 26.308 39.8875 28.204C38.8315 30.076 37.2955 31.516 35.2795 32.524C33.2875 33.508 30.9235 34 28.1875 34H20.3755V8.908H28.1875ZM28.1875 31.3C31.4275 31.3 33.8995 30.448 35.6035 28.744C37.3075 27.016 38.1595 24.604 38.1595 21.508C38.1595 18.388 37.2955 15.952 35.5675 14.2C33.8635 12.448 31.4035 11.572 28.1875 11.572H23.6515V31.3H28.1875ZM63.8286 23.38C63.8286 24.004 63.7926 24.664 63.7206 25.36H47.9526C48.0726 27.304 48.7326 28.828 49.9326 29.932C51.1566 31.012 52.6326 31.552 54.3606 31.552C55.7766 31.552 56.9526 31.228 57.8886 30.58C58.8486 29.908 59.5206 29.02 59.9046 27.916H63.4326C62.9046 29.812 61.8486 31.36 60.2646 32.56C58.6806 33.736 56.7126 34.324 54.3606 34.324C52.4886 34.324 50.8086 33.904 49.3206 33.064C47.8566 32.224 46.7046 31.036 45.8646 29.5C45.0246 27.94 44.6046 26.14 44.6046 24.1C44.6046 22.06 45.0126 20.272 45.8286 18.736C46.6446 17.2 47.7846 16.024 49.2486 15.208C50.7366 14.368 52.4406 13.948 54.3606 13.948C56.2326 13.948 57.8886 14.356 59.3286 15.172C60.7686 15.988 61.8726 17.116 62.6406 18.556C63.4326 19.972 63.8286 21.58 63.8286 23.38ZM60.4446 22.696C60.4446 21.448 60.1686 20.38 59.6166 19.492C59.0646 18.58 58.3086 17.896 57.3486 17.44C56.4126 16.96 55.3686 16.72 54.2166 16.72C52.5606 16.72 51.1446 17.248 49.9686 18.304C48.8166 19.36 48.1566 20.824 47.9886 22.696H60.4446ZM75.4969 30.976L81.6169 14.272H85.1089L77.3689 34H73.5529L65.8129 14.272H69.3409L75.4969 30.976ZM87.1085 21.436C87.1085 18.988 87.6605 16.792 88.7645 14.848C89.8685 12.88 91.3685 11.344 93.2645 10.24C95.1845 9.136 97.3085 8.584 99.6365 8.584C102.373 8.584 104.761 9.244 106.801 10.564C108.841 11.884 110.329 13.756 111.265 16.18H107.341C106.645 14.668 105.637 13.504 104.317 12.688C103.021 11.872 101.461 11.464 99.6365 11.464C97.8845 11.464 96.3125 11.872 94.9205 12.688C93.5285 13.504 92.4365 14.668 91.6445 16.18C90.8525 17.668 90.4565 19.42 90.4565 21.436C90.4565 23.428 90.8525 25.18 91.6445 26.692C92.4365 28.18 93.5285 29.332 94.9205 30.148C96.3125 30.964 97.8845 31.372 99.6365 31.372C101.461 31.372 103.021 30.976 104.317 30.184C105.637 29.368 106.645 28.204 107.341 26.692H111.265C110.329 29.092 108.841 30.952 106.801 32.272C104.761 33.568 102.373 34.216 99.6365 34.216C97.3085 34.216 95.1845 33.676 93.2645 32.596C91.3685 31.492 89.8685 29.968 88.7645 28.024C87.6605 26.08 87.1085 23.884 87.1085 21.436ZM125.933 13.912C127.421 13.912 128.765 14.236 129.965 14.884C131.165 15.508 132.101 16.456 132.773 17.728C133.469 19 133.817 20.548 133.817 22.372V34H130.577V22.84C130.577 20.872 130.085 19.372 129.101 18.34C128.117 17.284 126.773 16.756 125.069 16.756C123.341 16.756 121.961 17.296 120.929 18.376C119.921 19.456 119.417 21.028 119.417 23.092V34H116.141V7.36H119.417V17.08C120.065 16.072 120.953 15.292 122.081 14.74C123.233 14.188 124.517 13.912 125.933 13.912ZM137.944 24.064C137.944 22.048 138.352 20.284 139.168 18.772C139.984 17.236 141.1 16.048 142.516 15.208C143.956 14.368 145.552 13.948 147.304 13.948C149.032 13.948 150.532 14.32 151.804 15.064C153.076 15.808 154.024 16.744 154.648 17.872V14.272H157.96V34H154.648V30.328C154 31.48 153.028 32.44 151.732 33.208C150.46 33.952 148.972 34.324 147.268 34.324C145.516 34.324 143.932 33.892 142.516 33.028C141.1 32.164 139.984 30.952 139.168 29.392C138.352 27.832 137.944 26.056 137.944 24.064ZM154.648 24.1C154.648 22.612 154.348 21.316 153.748 20.212C153.148 19.108 152.332 18.268 151.3 17.692C150.292 17.092 149.176 16.792 147.952 16.792C146.728 16.792 145.612 17.08 144.604 17.656C143.596 18.232 142.792 19.072 142.192 20.176C141.592 21.28 141.292 22.576 141.292 24.064C141.292 25.576 141.592 26.896 142.192 28.024C142.792 29.128 143.596 29.98 144.604 30.58C145.612 31.156 146.728 31.444 147.952 31.444C149.176 31.444 150.292 31.156 151.3 30.58C152.332 29.98 153.148 29.128 153.748 28.024C154.348 26.896 154.648 25.588 154.648 24.1ZM167.493 16.972V28.6C167.493 29.56 167.697 30.244 168.105 30.652C168.513 31.036 169.221 31.228 170.229 31.228H172.641V34H169.689C167.865 34 166.497 33.58 165.585 32.74C164.673 31.9 164.217 30.52 164.217 28.6V16.972H161.661V14.272H164.217V9.304H167.493V14.272H172.641V16.972H167.493Z" fill="#71BB8E"/>
</svg>
